<svg width="100" height="100" viewBox="0 0 100 100" xmlns="http://www.w3.org/2000/svg">
  <g fill="none" stroke="#DAA520" stroke-width="1.5">
    <!-- Center stylized flower -->
    <path d="M50 20 Q 65 20 65 35 Q 65 50 50 60 Q 35 50 35 35 Q 35 20 50 20 Z" />
    <path d="M50 20 L 50 10 M 65 35 L 75 35 M 50 60 L 50 70 M 35 35 L 25 35" stroke-opacity="0.6"/>
    
    <!-- Swirls emanating from corners to center -->
    <path d="M0 0 Q 20 0 35 15 T 50 35" opacity="0.8"/>
    <path d="M100 0 Q 80 0 65 15 T 50 35" opacity="0.8"/>
    <path d="M0 100 Q 20 100 35 85 T 50 65" opacity="0.8"/>
    <path d="M100 100 Q 80 100 65 85 T 50 65" opacity="0.8"/>
    
    <!-- Connectors -->
    <circle cx="50" cy="50" r="3" fill="#DAA520" opacity="0.5"/>
  </g>
</svg>
